<svg width="455" height="425" viewBox="0 0 455 425" fill="none" xmlns="http://www.w3.org/2000/svg">
<path d="M362.011 175.192C352.305 139.485 330.559 108.228 300.454 86.7133C270.349 65.1982 233.735 54.746 196.809 57.1259C159.883 59.5058 124.913 74.5716 97.8194 99.7731C70.7255 124.975 53.1716 158.764 48.1291 195.421C43.0865 232.079 50.865 269.353 70.148 300.934C89.4309 332.515 119.034 356.463 153.946 368.725C188.858 380.987 226.934 380.809 261.73 368.222C296.526 355.634 325.904 331.41 344.891 299.651" stroke="#E4E4E4" stroke-width="48" stroke-miterlimit="3.99393" stroke-linecap="round"/>
<path d="M261.377 169.597L373.313 219.268C375.837 220.388 378.791 219.25 379.911 216.726L429.582 104.79" stroke="#E4E4E4" stroke-width="48" stroke-linecap="round"/>
</svg>
