<svg width="512" height="512" viewBox="0 0 512 512" fill="none" xmlns="http://www.w3.org/2000/svg">
<path d="M244.791 47.9976C242.453 45.6504 238.654 45.6438 236.306 47.9829L198.039 86.1004C195.69 88.4395 195.682 92.2385 198.02 94.5857C200.358 96.9329 204.157 96.9394 206.505 94.6004L240.521 60.7181L274.387 94.718C276.725 97.0652 280.524 97.0717 282.873 94.7327C285.221 92.3936 285.229 88.5946 282.891 86.2474L244.791 47.9976ZM240.539 52.2328L234.539 52.2225L233.958 317.954L239.958 317.965L245.958 317.975L246.539 52.2432L240.539 52.2328Z" fill="white"/>
<path d="M63.272 437.864C62.9483 440.968 65.5052 443.778 68.9828 444.14L125.655 450.051C129.133 450.414 132.214 448.192 132.538 445.089C132.862 441.985 130.305 439.176 126.827 438.813L76.4518 433.559L81.1403 388.606C81.4639 385.503 78.9071 382.693 75.4294 382.33C71.9517 381.968 68.8701 384.189 68.5465 387.293L63.272 437.864ZM69.5689 438.521L73.6071 442.959L247.469 317.611L243.43 313.174L239.392 308.736L65.5307 434.084L69.5689 438.521Z" fill="white"/>
<path d="M455.887 413.58C459.159 412.451 460.976 409.115 459.946 406.128L443.154 357.466C442.123 354.48 438.635 352.975 435.363 354.104C432.091 355.233 430.273 358.569 431.304 361.555L446.23 404.811L398.831 421.167C395.559 422.296 393.742 425.632 394.772 428.619C395.803 431.605 399.291 433.11 402.563 431.981L455.887 413.58ZM242.256 310.27L236.747 307.893L231.007 318.431L236.516 320.808L239.386 315.539L242.256 310.27ZM454.021 408.173L456.891 402.904L242.256 310.27L239.386 315.539L236.516 320.808L451.151 413.442L454.021 408.173Z" fill="white"/>
</svg>
