<svg width="512" height="512" viewBox="0 0 512 512" fill="none" xmlns="http://www.w3.org/2000/svg">
<g clip-path="url(#clip0_4_55)">
<circle cx="324.452" cy="202.492" r="156.43" fill="url(#paint0_radial_4_55)"/>
<circle cx="324.452" cy="202.492" r="156.43" fill="#030303" fill-opacity="0.26"/>
<path d="M316.089 42.8625C320.02 42.1716 323.991 42.0531 327.956 42.5071L328.831 42.6165L329.733 42.7258C333.334 43.1381 336.929 43.516 340.506 43.8469L342.256 44.011C346.008 44.358 349.733 44.9209 353.413 45.7336L354.288 45.925L355.135 46.1165C358.714 46.9068 362.284 47.7724 365.827 48.6868L367.522 49.1243C371.155 50.0618 374.738 51.1949 378.241 52.5422L379.061 52.8704L379.881 53.1711C383.194 54.4454 386.574 55.6359 389.999 56.7258L391.694 57.2727C395.527 58.4928 399.084 60.2754 402.358 62.6047L403.835 63.6438C406.81 65.7607 409.777 67.8652 412.721 69.9602L413.432 70.4797L414.143 70.9719C417.119 73.0894 420.07 75.2668 422.975 77.4797L423.686 78.0266L424.397 78.5461C427.378 80.8169 430.218 83.2578 432.928 85.8469L433.557 86.4758L434.214 87.0774C436.8 89.5489 439.45 91.9969 442.143 94.4055L442.799 94.9797L443.456 95.5813C446.396 98.2106 448.968 101.173 451.167 104.441L451.659 105.179L452.178 105.917C454.197 108.918 456.23 111.905 458.303 114.859L458.823 115.597L459.342 116.308C461.519 119.41 463.489 122.657 465.249 126.015L465.659 126.808L466.069 127.573C467.807 130.89 469.39 134.293 470.827 137.745L471.182 138.566L471.51 139.386C472.921 142.776 474.288 146.2 475.585 149.64L475.885 150.46L476.214 151.281C477.565 154.867 478.587 158.567 479.331 162.327L479.522 163.175L479.686 164.05C480.38 167.561 481.159 171.072 482.038 174.55L482.256 175.398L482.475 176.273C483.425 180.035 483.992 183.854 484.171 187.73L484.225 188.632L484.253 189.534C484.422 193.231 484.437 196.27 484.253 198.585L484.198 199.105L484.171 199.624C484.105 200.449 484.05 201.061 484.034 201.484C484.075 201.611 484.13 201.704 484.143 201.757C484.215 202.054 484.237 202.343 484.253 202.495C484.287 202.848 484.321 203.285 484.335 203.753V209.769C484.306 213.572 484.001 217.36 483.432 221.116L483.159 222.866C482.606 226.519 481.979 230.16 481.245 233.777L481.053 234.652L480.889 235.499C480.163 239.076 479.383 242.663 478.592 246.245L478.21 247.995C477.366 251.816 476.112 255.506 474.436 259.042L474.053 259.835L473.671 260.656C472.09 263.989 470.442 267.276 468.749 270.527L468.339 271.32L467.956 272.113C466.288 275.315 464.637 278.534 463.006 281.765L462.186 283.351C460.5 286.692 458.666 289.965 456.663 293.14L456.171 293.878L455.706 294.644C453.687 297.842 451.472 300.917 449.089 303.859L448.542 304.542L447.967 305.226C445.562 308.195 442.958 310.979 440.147 313.566L438.835 314.769C436.105 317.282 433.316 319.718 430.467 322.07L429.1 323.218C426.283 325.544 423.43 327.837 420.569 330.109L419.202 331.202C416.215 333.573 413.057 335.719 409.741 337.601L408.975 338.038L408.182 338.476C404.994 340.285 401.767 342.024 398.53 343.726L397.764 344.163L396.971 344.573C393.707 346.289 390.381 347.912 387.018 349.441L386.225 349.796L385.405 350.179C381.936 351.755 378.358 353.048 374.686 354.062L373.839 354.281L372.991 354.527C369.5 355.49 366.004 356.473 362.518 357.452L361.643 357.698L360.796 357.917C357.194 358.929 353.547 359.773 349.858 360.433L348.108 360.761C344.321 361.438 340.5 361.746 336.651 361.718H334.874C331.249 361.691 327.627 361.679 324.018 361.691H322.241C318.572 361.703 314.898 361.647 311.221 361.499L310.346 361.445L309.444 361.417C305.675 361.265 301.929 360.877 298.206 360.269L296.456 359.995C292.771 359.393 289.113 358.616 285.491 357.698L284.643 357.48L283.768 357.288C280.108 356.361 276.516 355.201 272.995 353.843L272.174 353.515L271.354 353.214C267.933 351.895 264.528 350.507 261.155 349.085L260.335 348.757L259.514 348.402C256.007 346.924 252.637 345.176 249.397 343.179L247.866 342.249C244.8 340.36 241.717 338.504 238.624 336.671L237.858 336.206L237.092 335.769C233.815 333.826 230.718 331.624 227.796 329.179L227.112 328.605L226.428 328.058C223.664 325.746 220.887 323.446 218.089 321.167L217.405 320.593L216.721 320.046C213.847 317.706 211.026 315.258 208.299 312.718L207.671 312.116L207.014 311.515C204.17 308.865 201.605 305.936 199.358 302.765L198.866 302.054L198.346 301.316C196.233 298.332 194.131 295.345 192.057 292.347L191.538 291.609L191.046 290.87C188.906 287.778 186.938 284.574 185.139 281.273L184.702 280.507L184.292 279.714C182.487 276.4 180.877 272.988 179.479 269.488L178.823 267.847C177.489 264.504 176.112 261.178 174.694 257.866L173.983 256.226C172.492 252.746 171.237 249.18 170.21 245.534L169.964 244.687L169.717 243.812C168.709 240.233 167.836 236.605 167.092 232.956L166.928 232.109L166.737 231.234C165.979 227.515 165.488 223.753 165.233 219.968L165.151 219.066L165.096 218.191C164.843 214.424 164.806 210.638 164.987 206.87L165.042 205.995L165.069 205.093C165.237 201.592 165.231 198.082 165.014 194.566L164.96 193.691L164.905 192.788C164.666 188.919 164.808 185.062 165.315 181.222L165.424 180.32L165.534 179.445C166.03 175.689 166.749 171.979 167.694 168.316L167.913 167.441L168.159 166.593C169.112 162.902 170.299 159.28 171.768 155.765L172.124 154.945L172.452 154.124C173.829 150.828 175.107 147.496 176.28 144.144L176.581 143.323L176.881 142.476C178.124 138.927 179.564 135.459 181.229 132.085L181.639 131.292L182.022 130.499C183.654 127.193 185.377 123.93 187.19 120.71L187.628 119.945L188.065 119.152C189.896 115.901 191.875 112.739 193.999 109.663L194.518 108.925L195.01 108.187C197.199 105.018 199.663 102.073 202.393 99.3547L203.651 98.0969C206.181 95.579 208.638 92.9886 211.006 90.3313L212.21 89.0188C214.705 86.2186 217.337 83.5454 220.112 81.0071L221.424 79.804C224.208 77.2575 227.122 74.8635 230.174 72.6399L230.885 72.1204L231.624 71.6008C234.729 69.3392 237.994 67.3399 241.44 65.6399L242.26 65.2571L243.053 64.8469C246.351 63.2209 249.666 61.6446 252.979 60.1165L253.772 59.761L254.565 59.3782C257.889 57.845 261.254 56.3632 264.628 54.9485L265.448 54.6204L266.241 54.2649C269.582 52.8637 272.951 51.4707 276.331 50.0813L277.151 49.7532L277.999 49.3977C281.663 47.8929 285.467 46.9077 289.401 46.4446L290.303 46.3352L291.178 46.2532C294.795 45.8279 298.395 45.3974 301.979 44.968L302.881 44.8586L303.756 44.7493C307.278 44.3271 310.806 43.8115 314.339 43.1907L316.089 42.8625ZM317.319 49.7532L316.444 49.9172L315.542 50.0813C311.884 50.7241 308.228 51.2571 304.577 51.6946L302.827 51.9133C299.235 52.3437 295.624 52.7722 291.999 53.1985L291.124 53.3079L290.221 53.3899C286.917 53.7788 283.729 54.6131 280.651 55.8782L279.831 56.2336L279.01 56.5618C275.643 57.9459 272.276 59.3223 268.948 60.718L268.155 61.0735L267.335 61.4016C264.041 62.7827 260.763 64.2253 257.518 65.7219L256.698 66.1047L255.905 66.4875C252.647 67.9903 249.387 69.5363 246.143 71.136L245.35 71.5188L244.557 71.929C241.465 73.4539 238.511 75.2317 235.725 77.261L234.303 78.3C231.461 80.3705 228.746 82.6016 226.155 84.9719L224.842 86.175C222.243 88.553 219.769 91.0454 217.432 93.6672L216.831 94.3235L216.256 94.9797C213.793 97.7436 211.231 100.455 208.6 103.073L207.971 103.675L207.342 104.304C204.913 106.722 202.726 109.361 200.78 112.179L200.288 112.89L199.768 113.628C197.761 116.535 195.893 119.526 194.163 122.597L193.725 123.363L193.288 124.156C191.541 127.258 189.883 130.403 188.311 133.589L187.901 134.382L187.518 135.175C185.977 138.299 184.621 141.516 183.471 144.8L183.198 145.648L182.897 146.468C181.678 149.951 180.363 153.408 178.932 156.831L178.577 157.652L178.249 158.472C176.909 161.678 175.782 164.975 174.913 168.343L174.694 169.191L174.475 170.066C173.6 173.455 172.938 176.899 172.479 180.374L172.37 181.249L172.233 182.124C171.785 185.518 171.667 188.93 171.878 192.351L171.932 193.253L171.987 194.128C172.22 197.903 172.25 201.686 172.069 205.448L172.042 206.323L171.987 207.226C171.819 210.722 171.862 214.23 172.096 217.726L172.206 219.476C172.439 222.952 172.904 226.422 173.6 229.839L173.792 230.687L173.956 231.562C174.666 235.048 175.508 238.507 176.471 241.925L176.717 242.773L176.936 243.648C177.881 247 179.066 250.265 180.436 253.464L180.764 254.284L181.12 255.105C182.562 258.472 183.974 261.85 185.331 265.249L185.987 266.89C187.282 270.134 188.771 273.307 190.444 276.378L190.854 277.144L191.292 277.937C192.968 281.013 194.795 283.996 196.788 286.878L197.307 287.616L197.799 288.355C199.861 291.334 201.96 294.303 204.061 297.269L204.581 298.007L205.073 298.718C207.042 301.497 209.28 304.052 211.772 306.374L212.428 306.976L213.085 307.605C215.694 310.035 218.375 312.367 221.124 314.605L221.807 315.179L222.518 315.726C225.341 318.024 228.152 320.339 230.94 322.671L231.596 323.245L232.28 323.82C234.913 326.023 237.72 328.003 240.674 329.753L241.44 330.191L242.178 330.656C245.313 332.513 248.451 334.401 251.557 336.316L252.296 336.781L253.061 337.245C255.992 339.051 259.049 340.611 262.221 341.948L263.042 342.304L263.862 342.632C267.172 344.027 270.513 345.384 273.87 346.679L274.69 347.007L275.51 347.308C278.77 348.565 282.102 349.621 285.491 350.48L286.339 350.698L287.214 350.917C290.639 351.785 294.092 352.508 297.577 353.077L298.452 353.214L299.327 353.378C302.768 353.94 306.234 354.276 309.717 354.417L310.62 354.472L311.495 354.499C315.074 354.643 318.67 354.702 322.241 354.691H323.991C327.625 354.679 331.279 354.691 334.928 354.718H336.706C340.124 354.743 343.515 354.472 346.878 353.87L348.628 353.542C352.096 352.922 355.524 352.142 358.909 351.191L360.604 350.698C364.103 349.715 367.628 348.74 371.131 347.773L371.979 347.554L372.827 347.308C376.144 346.392 379.372 345.232 382.506 343.808L383.327 343.425L384.12 343.07C387.364 341.595 390.569 340.021 393.717 338.366L394.51 337.956L395.276 337.546C398.45 335.878 401.61 334.152 404.737 332.378L406.268 331.503C409.267 329.802 412.126 327.878 414.827 325.734L415.538 325.187L416.221 324.613C419.048 322.368 421.86 320.102 424.643 317.804L425.327 317.257L426.01 316.683C428.763 314.41 431.465 312.058 434.104 309.628L435.417 308.425C437.976 306.07 440.335 303.527 442.526 300.823L443.1 300.14L443.647 299.456C445.859 296.726 447.927 293.865 449.799 290.898L450.264 290.132L450.729 289.394C452.616 286.404 454.365 283.324 455.952 280.179L456.335 279.386L456.745 278.593C458.384 275.343 460.044 272.107 461.721 268.886L462.542 267.3C464.196 264.123 465.809 260.907 467.354 257.648L467.737 256.855L468.12 256.034C469.569 252.977 470.644 249.795 471.374 246.491L471.756 244.741C472.539 241.196 473.308 237.644 474.026 234.105L474.19 233.257L474.381 232.382C475.092 228.883 475.706 225.362 476.241 221.827L476.378 220.952L476.514 220.05C477.032 216.626 477.308 213.181 477.335 209.714V203.945C477.332 203.843 477.31 203.752 477.307 203.671L477.28 203.616C477.13 203.191 477.076 202.801 477.061 202.659C477.025 202.31 477.029 201.941 477.034 201.648C477.045 201.01 477.113 200.118 477.198 199.05L477.225 198.531L477.28 198.038C477.43 196.146 477.444 193.423 477.28 189.835L477.225 188.96L477.198 188.058C477.041 184.652 476.528 181.301 475.694 177.995L475.256 176.245C474.349 172.653 473.54 169.044 472.823 165.417L472.659 164.542L472.467 163.667C471.799 160.29 470.864 156.99 469.651 153.769L469.35 152.921L469.022 152.101C467.753 148.733 466.438 145.384 465.057 142.066L464.702 141.245L464.374 140.425C463.017 137.164 461.504 133.961 459.862 130.827L459.452 130.034L459.042 129.269C457.422 126.177 455.604 123.182 453.6 120.327L453.108 119.616L452.589 118.878C450.486 115.883 448.401 112.87 446.354 109.827L445.37 108.351C443.498 105.569 441.312 103.045 438.807 100.804L438.124 100.202L437.467 99.6282C434.716 97.1677 432.018 94.6622 429.374 92.136L428.745 91.5344L428.089 90.9055C425.569 88.499 422.929 86.2349 420.159 84.1243L419.448 83.6047L418.737 83.0579C415.89 80.8891 413.013 78.762 410.096 76.6868L409.385 76.1672L408.647 75.675C405.699 73.5772 402.74 71.4511 399.76 69.3313L399.049 68.8118L398.311 68.2922C395.629 66.3841 392.704 64.9449 389.561 63.9446L387.866 63.3977C384.313 62.2667 380.807 61.0302 377.366 59.7063L376.546 59.4055L375.725 59.0774C372.473 57.8262 369.145 56.7761 365.772 55.9055L364.077 55.468C360.613 54.5742 357.13 53.7251 353.631 52.9524L352.756 52.761L351.909 52.5696C348.516 51.8201 345.087 51.2765 341.628 50.9563L340.725 50.8743L339.85 50.7922C336.22 50.4564 332.566 50.0894 328.913 49.6711L328.038 49.5618L327.163 49.4797C323.87 49.1027 320.584 49.1803 317.319 49.7532ZM478.346 205.093L478.401 205.12C478.365 205.09 478.325 205.069 478.292 205.038L478.346 205.093ZM481.901 199.241C481.574 199.111 481.202 199.013 480.78 198.995C481.204 199.006 481.572 199.118 481.901 199.241Z" fill="url(#paint1_radial_4_55)"/>
<path d="M316.089 42.8625C320.02 42.1716 323.991 42.0531 327.956 42.5071L328.831 42.6165L329.733 42.7258C333.334 43.1381 336.929 43.516 340.506 43.8469L342.256 44.011C346.008 44.358 349.733 44.9209 353.413 45.7336L354.288 45.925L355.135 46.1165C358.714 46.9068 362.284 47.7724 365.827 48.6868L367.522 49.1243C371.155 50.0618 374.738 51.1949 378.241 52.5422L379.061 52.8704L379.881 53.1711C383.194 54.4454 386.574 55.6359 389.999 56.7258L391.694 57.2727C395.527 58.4928 399.084 60.2754 402.358 62.6047L403.835 63.6438C406.81 65.7607 409.777 67.8652 412.721 69.9602L413.432 70.4797L414.143 70.9719C417.119 73.0894 420.07 75.2668 422.975 77.4797L423.686 78.0266L424.397 78.5461C427.378 80.8169 430.218 83.2578 432.928 85.8469L433.557 86.4758L434.214 87.0774C436.8 89.5489 439.45 91.9969 442.143 94.4055L442.799 94.9797L443.456 95.5813C446.396 98.2106 448.968 101.173 451.167 104.441L451.659 105.179L452.178 105.917C454.197 108.918 456.23 111.905 458.303 114.859L458.823 115.597L459.342 116.308C461.519 119.41 463.489 122.657 465.249 126.015L465.659 126.808L466.069 127.573C467.807 130.89 469.39 134.293 470.827 137.745L471.182 138.566L471.51 139.386C472.921 142.776 474.288 146.2 475.585 149.64L475.885 150.46L476.214 151.281C477.565 154.867 478.587 158.567 479.331 162.327L479.522 163.175L479.686 164.05C480.38 167.561 481.159 171.072 482.038 174.55L482.256 175.398L482.475 176.273C483.425 180.035 483.992 183.854 484.171 187.73L484.225 188.632L484.253 189.534C484.422 193.231 484.437 196.27 484.253 198.585L484.198 199.105L484.171 199.624C484.105 200.449 484.05 201.061 484.034 201.484C484.075 201.611 484.13 201.704 484.143 201.757C484.215 202.054 484.237 202.343 484.253 202.495C484.287 202.848 484.321 203.285 484.335 203.753V209.769C484.306 213.572 484.001 217.36 483.432 221.116L483.159 222.866C482.606 226.519 481.979 230.16 481.245 233.777L481.053 234.652L480.889 235.499C480.163 239.076 479.383 242.663 478.592 246.245L478.21 247.995C477.366 251.816 476.112 255.506 474.436 259.042L474.053 259.835L473.671 260.656C472.09 263.989 470.442 267.276 468.749 270.527L468.339 271.32L467.956 272.113C466.288 275.315 464.637 278.534 463.006 281.765L462.186 283.351C460.5 286.692 458.666 289.965 456.663 293.14L456.171 293.878L455.706 294.644C453.687 297.842 451.472 300.917 449.089 303.859L448.542 304.542L447.967 305.226C445.562 308.195 442.958 310.979 440.147 313.566L438.835 314.769C436.105 317.282 433.316 319.718 430.467 322.07L429.1 323.218C426.283 325.544 423.43 327.837 420.569 330.109L419.202 331.202C416.215 333.573 413.057 335.719 409.741 337.601L408.975 338.038L408.182 338.476C404.994 340.285 401.767 342.024 398.53 343.726L397.764 344.163L396.971 344.573C393.707 346.289 390.381 347.912 387.018 349.441L386.225 349.796L385.405 350.179C381.936 351.755 378.358 353.048 374.686 354.062L373.839 354.281L372.991 354.527C369.5 355.49 366.004 356.473 362.518 357.452L361.643 357.698L360.796 357.917C357.194 358.929 353.547 359.773 349.858 360.433L348.108 360.761C344.321 361.438 340.5 361.746 336.651 361.718H334.874C331.249 361.691 327.627 361.679 324.018 361.691H322.241C318.572 361.703 314.898 361.647 311.221 361.499L310.346 361.445L309.444 361.417C305.675 361.265 301.929 360.877 298.206 360.269L296.456 359.995C292.771 359.393 289.113 358.616 285.491 357.698L284.643 357.48L283.768 357.288C280.108 356.361 276.516 355.201 272.995 353.843L272.174 353.515L271.354 353.214C267.933 351.895 264.528 350.507 261.155 349.085L260.335 348.757L259.514 348.402C256.007 346.924 252.637 345.176 249.397 343.179L247.866 342.249C244.8 340.36 241.717 338.504 238.624 336.671L237.858 336.206L237.092 335.769C233.815 333.826 230.718 331.624 227.796 329.179L227.112 328.605L226.428 328.058C223.664 325.746 220.887 323.446 218.089 321.167L217.405 320.593L216.721 320.046C213.847 317.706 211.026 315.258 208.299 312.718L207.671 312.116L207.014 311.515C204.17 308.865 201.605 305.936 199.358 302.765L198.866 302.054L198.346 301.316C196.233 298.332 194.131 295.345 192.057 292.347L191.538 291.609L191.046 290.87C188.906 287.778 186.938 284.574 185.139 281.273L184.702 280.507L184.292 279.714C182.487 276.4 180.877 272.988 179.479 269.488L178.823 267.847C177.489 264.504 176.112 261.178 174.694 257.866L173.983 256.226C172.492 252.746 171.237 249.18 170.21 245.534L169.964 244.687L169.717 243.812C168.709 240.233 167.836 236.605 167.092 232.956L166.928 232.109L166.737 231.234C165.979 227.515 165.488 223.753 165.233 219.968L165.151 219.066L165.096 218.191C164.843 214.424 164.806 210.638 164.987 206.87L165.042 205.995L165.069 205.093C165.237 201.592 165.231 198.082 165.014 194.566L164.96 193.691L164.905 192.788C164.666 188.919 164.808 185.062 165.315 181.222L165.424 180.32L165.534 179.445C166.03 175.689 166.749 171.979 167.694 168.316L167.913 167.441L168.159 166.593C169.112 162.902 170.299 159.28 171.768 155.765L172.124 154.945L172.452 154.124C173.829 150.828 175.107 147.496 176.28 144.144L176.581 143.323L176.881 142.476C178.124 138.927 179.564 135.459 181.229 132.085L181.639 131.292L182.022 130.499C183.654 127.193 185.377 123.93 187.19 120.71L187.628 119.945L188.065 119.152C189.896 115.901 191.875 112.739 193.999 109.663L194.518 108.925L195.01 108.187C197.199 105.018 199.663 102.073 202.393 99.3547L203.651 98.0969C206.181 95.579 208.638 92.9886 211.006 90.3313L212.21 89.0188C214.705 86.2186 217.337 83.5454 220.112 81.0071L221.424 79.804C224.208 77.2575 227.122 74.8635 230.174 72.6399L230.885 72.1204L231.624 71.6008C234.729 69.3392 237.994 67.3399 241.44 65.6399L242.26 65.2571L243.053 64.8469C246.351 63.2209 249.666 61.6446 252.979 60.1165L253.772 59.761L254.565 59.3782C257.889 57.845 261.254 56.3632 264.628 54.9485L265.448 54.6204L266.241 54.2649C269.582 52.8637 272.951 51.4707 276.331 50.0813L277.151 49.7532L277.999 49.3977C281.663 47.8929 285.467 46.9077 289.401 46.4446L290.303 46.3352L291.178 46.2532C294.795 45.8279 298.395 45.3974 301.979 44.968L302.881 44.8586L303.756 44.7493C307.278 44.3271 310.806 43.8115 314.339 43.1907L316.089 42.8625ZM317.319 49.7532L316.444 49.9172L315.542 50.0813C311.884 50.7241 308.228 51.2571 304.577 51.6946L302.827 51.9133C299.235 52.3437 295.624 52.7722 291.999 53.1985L291.124 53.3079L290.221 53.3899C286.917 53.7788 283.729 54.6131 280.651 55.8782L279.831 56.2336L279.01 56.5618C275.643 57.9459 272.276 59.3223 268.948 60.718L268.155 61.0735L267.335 61.4016C264.041 62.7827 260.763 64.2253 257.518 65.7219L256.698 66.1047L255.905 66.4875C252.647 67.9903 249.387 69.5363 246.143 71.136L245.35 71.5188L244.557 71.929C241.465 73.4539 238.511 75.2317 235.725 77.261L234.303 78.3C231.461 80.3705 228.746 82.6016 226.155 84.9719L224.842 86.175C222.243 88.553 219.769 91.0454 217.432 93.6672L216.831 94.3235L216.256 94.9797C213.793 97.7436 211.231 100.455 208.6 103.073L207.971 103.675L207.342 104.304C204.913 106.722 202.726 109.361 200.78 112.179L200.288 112.89L199.768 113.628C197.761 116.535 195.893 119.526 194.163 122.597L193.725 123.363L193.288 124.156C191.541 127.258 189.883 130.403 188.311 133.589L187.901 134.382L187.518 135.175C185.977 138.299 184.621 141.516 183.471 144.8L183.198 145.648L182.897 146.468C181.678 149.951 180.363 153.408 178.932 156.831L178.577 157.652L178.249 158.472C176.909 161.678 175.782 164.975 174.913 168.343L174.694 169.191L174.475 170.066C173.6 173.455 172.938 176.899 172.479 180.374L172.37 181.249L172.233 182.124C171.785 185.518 171.667 188.93 171.878 192.351L171.932 193.253L171.987 194.128C172.22 197.903 172.25 201.686 172.069 205.448L172.042 206.323L171.987 207.226C171.819 210.722 171.862 214.23 172.096 217.726L172.206 219.476C172.439 222.952 172.904 226.422 173.6 229.839L173.792 230.687L173.956 231.562C174.666 235.048 175.508 238.507 176.471 241.925L176.717 242.773L176.936 243.648C177.881 247 179.066 250.265 180.436 253.464L180.764 254.284L181.12 255.105C182.562 258.472 183.974 261.85 185.331 265.249L185.987 266.89C187.282 270.134 188.771 273.307 190.444 276.378L190.854 277.144L191.292 277.937C192.968 281.013 194.795 283.996 196.788 286.878L197.307 287.616L197.799 288.355C199.861 291.334 201.96 294.303 204.061 297.269L204.581 298.007L205.073 298.718C207.042 301.497 209.28 304.052 211.772 306.374L212.428 306.976L213.085 307.605C215.694 310.035 218.375 312.367 221.124 314.605L221.807 315.179L222.518 315.726C225.341 318.024 228.152 320.339 230.94 322.671L231.596 323.245L232.28 323.82C234.913 326.023 237.72 328.003 240.674 329.753L241.44 330.191L242.178 330.656C245.313 332.513 248.451 334.401 251.557 336.316L252.296 336.781L253.061 337.245C255.992 339.051 259.049 340.611 262.221 341.948L263.042 342.304L263.862 342.632C267.172 344.027 270.513 345.384 273.87 346.679L274.69 347.007L275.51 347.308C278.77 348.565 282.102 349.621 285.491 350.48L286.339 350.698L287.214 350.917C290.639 351.785 294.092 352.508 297.577 353.077L298.452 353.214L299.327 353.378C302.768 353.94 306.234 354.276 309.717 354.417L310.62 354.472L311.495 354.499C315.074 354.643 318.67 354.702 322.241 354.691H323.991C327.625 354.679 331.279 354.691 334.928 354.718H336.706C340.124 354.743 343.515 354.472 346.878 353.87L348.628 353.542C352.096 352.922 355.524 352.142 358.909 351.191L360.604 350.698C364.103 349.715 367.628 348.74 371.131 347.773L371.979 347.554L372.827 347.308C376.144 346.392 379.372 345.232 382.506 343.808L383.327 343.425L384.12 343.07C387.364 341.595 390.569 340.021 393.717 338.366L394.51 337.956L395.276 337.546C398.45 335.878 401.61 334.152 404.737 332.378L406.268 331.503C409.267 329.802 412.126 327.878 414.827 325.734L415.538 325.187L416.221 324.613C419.048 322.368 421.86 320.102 424.643 317.804L425.327 317.257L426.01 316.683C428.763 314.41 431.465 312.058 434.104 309.628L435.417 308.425C437.976 306.07 440.335 303.527 442.526 300.823L443.1 300.14L443.647 299.456C445.859 296.726 447.927 293.865 449.799 290.898L450.264 290.132L450.729 289.394C452.616 286.404 454.365 283.324 455.952 280.179L456.335 279.386L456.745 278.593C458.384 275.343 460.044 272.107 461.721 268.886L462.542 267.3C464.196 264.123 465.809 260.907 467.354 257.648L467.737 256.855L468.12 256.034C469.569 252.977 470.644 249.795 471.374 246.491L471.756 244.741C472.539 241.196 473.308 237.644 474.026 234.105L474.19 233.257L474.381 232.382C475.092 228.883 475.706 225.362 476.241 221.827L476.378 220.952L476.514 220.05C477.032 216.626 477.308 213.181 477.335 209.714V203.945C477.332 203.843 477.31 203.752 477.307 203.671L477.28 203.616C477.13 203.191 477.076 202.801 477.061 202.659C477.025 202.31 477.029 201.941 477.034 201.648C477.045 201.01 477.113 200.118 477.198 199.05L477.225 198.531L477.28 198.038C477.43 196.146 477.444 193.423 477.28 189.835L477.225 188.96L477.198 188.058C477.041 184.652 476.528 181.301 475.694 177.995L475.256 176.245C474.349 172.653 473.54 169.044 472.823 165.417L472.659 164.542L472.467 163.667C471.799 160.29 470.864 156.99 469.651 153.769L469.35 152.921L469.022 152.101C467.753 148.733 466.438 145.384 465.057 142.066L464.702 141.245L464.374 140.425C463.017 137.164 461.504 133.961 459.862 130.827L459.452 130.034L459.042 129.269C457.422 126.177 455.604 123.182 453.6 120.327L453.108 119.616L452.589 118.878C450.486 115.883 448.401 112.87 446.354 109.827L445.37 108.351C443.498 105.569 441.312 103.045 438.807 100.804L438.124 100.202L437.467 99.6282C434.716 97.1677 432.018 94.6622 429.374 92.136L428.745 91.5344L428.089 90.9055C425.569 88.499 422.929 86.2349 420.159 84.1243L419.448 83.6047L418.737 83.0579C415.89 80.8891 413.013 78.762 410.096 76.6868L409.385 76.1672L408.647 75.675C405.699 73.5772 402.74 71.4511 399.76 69.3313L399.049 68.8118L398.311 68.2922C395.629 66.3841 392.704 64.9449 389.561 63.9446L387.866 63.3977C384.313 62.2667 380.807 61.0302 377.366 59.7063L376.546 59.4055L375.725 59.0774C372.473 57.8262 369.145 56.7761 365.772 55.9055L364.077 55.468C360.613 54.5742 357.13 53.7251 353.631 52.9524L352.756 52.761L351.909 52.5696C348.516 51.8201 345.087 51.2765 341.628 50.9563L340.725 50.8743L339.85 50.7922C336.22 50.4564 332.566 50.0894 328.913 49.6711L328.038 49.5618L327.163 49.4797C323.87 49.1027 320.584 49.1803 317.319 49.7532ZM478.346 205.093L478.401 205.12C478.365 205.09 478.325 205.069 478.292 205.038L478.346 205.093ZM481.901 199.241C481.574 199.111 481.202 199.013 480.78 198.995C481.204 199.006 481.572 199.118 481.901 199.241Z" fill="#030303" fill-opacity="0.26"/>
<path d="M311.075 210.451L98.3175 429.443" stroke="#E4E4E4" stroke-width="15" stroke-linecap="square"/>
<path d="M63.689 458.13L112.162 300.457C131.728 362.255 151.753 389.736 221.915 411.493L63.689 458.13Z" fill="url(#paint2_linear_4_55)"/>
</g>
<defs>
<radialGradient id="paint0_radial_4_55" cx="0" cy="0" r="1" gradientUnits="userSpaceOnUse" gradientTransform="translate(420.606 136.475) rotate(142.237) scale(257.782)">
<stop stop-color="#E4E4E4"/>
<stop offset="1" stop-color="#4C4949"/>
</radialGradient>
<radialGradient id="paint1_radial_4_55" cx="0" cy="0" r="1" gradientUnits="userSpaceOnUse" gradientTransform="translate(420.606 136.475) rotate(142.237) scale(257.782)">
<stop stop-color="#E4E4E4"/>
<stop offset="1" stop-color="#4C4949"/>
</radialGradient>
<linearGradient id="paint2_linear_4_55" x1="53.5988" y1="345.055" x2="180.802" y2="471.382" gradientUnits="userSpaceOnUse">
<stop stop-color="#A6A6A6"/>
<stop offset="0.5" stop-color="#D9D9D9"/>
<stop offset="1" stop-color="#737373"/>
</linearGradient>
<clipPath id="clip0_4_55">
<rect width="512" height="512" fill="white"/>
</clipPath>
</defs>
</svg>
